<svg xmlns="http://www.w3.org/2000/svg" viewBox="0 0 200 200" fill="none">
  
  <g stroke="#C9A961" stroke-width="1.2" fill="none" opacity="0.9">
    <path d="M 40 100 Q 30 70 50 50"></path>
    <path d="M 42 90 Q 35 92 32 85"></path>
    <path d="M 44 80 Q 37 82 34 75"></path>
    <path d="M 46 70 Q 39 72 36 65"></path>
    <path d="M 48 60 Q 41 62 38 55"></path>
    <path d="M 50 55 Q 43 55 41 48"></path>
    
    <path d="M 160 100 Q 170 70 150 50"></path>
    <path d="M 158 90 Q 165 92 168 85"></path>
    <path d="M 156 80 Q 163 82 166 75"></path>
    <path d="M 154 70 Q 161 72 164 65"></path>
    <path d="M 152 60 Q 159 62 162 55"></path>
    <path d="M 150 55 Q 157 55 159 48"></path>
  </g>

  
  <g>
    <path d="M 60 140 Q 100 125 100 135 Q 100 125 140 140 L 140 160 Q 100 145 60 160 Z" fill="#1B3358" stroke="#C9A961" stroke-width="1.5"></path>
    <path d="M 100 135 L 100 160" stroke="#C9A961" stroke-width="1"></path>
    
    <path d="M 72 145 L 92 142" stroke="#C9A961" stroke-width="0.6" opacity="0.7"></path>
    <path d="M 72 150 L 92 147" stroke="#C9A961" stroke-width="0.6" opacity="0.7"></path>
    <path d="M 108 142 L 128 145" stroke="#C9A961" stroke-width="0.6" opacity="0.7"></path>
    <path d="M 108 147 L 128 150" stroke="#C9A961" stroke-width="0.6" opacity="0.7"></path>
  </g>

  
  <g stroke="#C9A961" stroke-width="1.5" fill="none">
    <line x1="100" y1="50" x2="100" y2="130"></line>
    <circle cx="100" cy="48" r="3" fill="#C9A961"></circle>
    
    <line x1="70" y1="62" x2="130" y2="62"></line>
    
    <line x1="70" y1="62" x2="62" y2="78"></line>
    <line x1="70" y1="62" x2="78" y2="78"></line>
    
    <path d="M 58 78 Q 70 88 82 78" fill="#1B3358"></path>
    
    <line x1="130" y1="62" x2="122" y2="78"></line>
    <line x1="130" y1="62" x2="138" y2="78"></line>
    
    <path d="M 118 78 Q 130 88 142 78" fill="#1B3358"></path>
  </g>

  
  <g stroke="#C9A961" stroke-width="1.1" fill="none" opacity="0.95">
    <ellipse cx="100" cy="90" rx="28" ry="10" transform="rotate(30 100 90)"></ellipse>
    <ellipse cx="100" cy="90" rx="28" ry="10" transform="rotate(-30 100 90)"></ellipse>
    <ellipse cx="100" cy="90" rx="28" ry="10"></ellipse>
    <circle cx="100" cy="90" r="3" fill="#C9A961" stroke="none"></circle>
  </g>
</svg>